<svg width="336" height="52" viewBox="0 0 336 52" fill="none" xmlns="http://www.w3.org/2000/svg">
<path d="M3.24554 49.485C8.01141 43.2385 12.6849 37.1134 17.4508 30.867C17.8062 31.1342 18.1426 31.3716 18.4622 31.63C20.9759 33.6621 23.4835 35.7018 25.9989 37.7316C27.145 38.6566 27.6326 38.6472 28.7949 37.7063C31.5809 35.4504 34.3645 33.1919 37.2736 30.8337C42.0067 37.0299 46.7036 43.1788 51.5207 49.485L3.24554 49.485Z" fill="white"/>
<path d="M53.0415 46.5455C48.4882 40.5838 44.0868 34.8208 39.6048 28.952C44.0635 25.3365 48.4745 21.7597 53.0415 18.0563V46.5455Z" fill="white"/>
<path d="M1.68857 18.0372C6.25732 21.7387 10.6528 25.2997 15.1552 28.9474C10.7069 34.7739 6.28662 40.5637 1.68857 46.5862V18.0372Z" fill="white"/>
<path d="M49.7621 14.8371L27.3945 1.77832L5.02693 14.8371V16.9492H49.7621V14.8371ZM45.5645 16.7298L45.5581 20.2675C46.9703 19.1229 48.3357 18.1054 49.7621 16.9492L45.5645 16.7298ZM35.2736 16.817V28.6044C36.8635 27.3157 38.4567 26.0242 40.0539 24.7293V16.817H35.2736ZM24.989 16.817V33.0652C25.7857 33.7109 26.5825 34.3567 27.3799 35.0031C28.1768 34.3572 28.9729 33.7117 29.7693 33.0663V16.817H24.989ZM14.7044 16.817V24.7287C16.3009 26.0229 17.8941 27.3143 19.4847 28.6035V16.817H14.7044ZM5.02693 16.9492C6.45245 18.1046 7.78697 19.1218 9.20008 20.2673V16.817L5.02693 16.9492Z" fill="white" fill-opacity="0.466667"/>
<path d="M75.0306 18.4062L79.8646 36.916L84.681 18.4062H91.431V44H86.2455V37.0742L86.7201 26.4043L81.6049 44H78.0892L72.974 26.4043L73.4486 37.0742V44H68.2806V18.4062H75.0306ZM108.13 38.7617H101.081L99.7103 44H94.2435L102.242 18.4062H106.97L115.021 44H109.501L108.13 38.7617ZM102.206 34.4551H106.988L104.597 25.332L102.206 34.4551ZM122.826 44H117.658V18.4062H122.826V44ZM132.335 39.7109H141.406V44H127.167V18.4062H132.335V39.7109ZM207.359 44V18.4062H215.269C217.941 18.4062 219.968 19.0039 221.351 20.1992C222.745 21.3828 223.443 23.123 223.443 25.4199C223.443 26.7207 223.156 27.8398 222.581 28.7773C222.007 29.7148 221.222 30.4004 220.226 30.834C221.374 31.1621 222.259 31.8242 222.88 32.8203C223.501 33.8047 223.812 35.0234 223.812 36.4766C223.812 38.9609 223.126 40.8359 221.755 42.1016C220.396 43.3672 218.421 44 215.831 44H207.359ZM212.527 32.873V39.7109H215.831C216.757 39.7109 217.46 39.4238 217.941 38.8496C218.421 38.2754 218.661 37.4609 218.661 36.4062C218.661 34.1094 217.829 32.9316 216.165 32.873H212.527ZM212.527 29.1113H215.216C217.244 29.1113 218.257 28.0625 218.257 25.9648C218.257 24.8047 218.023 23.9727 217.554 23.4688C217.085 22.9648 216.324 22.7129 215.269 22.7129H212.527V29.1113ZM239.79 38.7617H232.742L231.37 44H225.904L233.902 18.4062H238.63L246.681 44H241.161L239.79 38.7617ZM233.867 34.4551H238.648L236.257 25.332L233.867 34.4551ZM254.257 39.7109H263.328V44H249.089V18.4062H254.257V39.7109ZM271.484 39.7109H280.554V44H266.316V18.4062H271.484V39.7109ZM300.435 33.5059C300.435 36.9395 299.62 39.6055 297.992 41.5039C296.374 43.4023 294.124 44.3516 291.242 44.3516C288.37 44.3516 286.115 43.4141 284.474 41.5391C282.833 39.6523 282.001 37.0156 281.978 33.6289V29.252C281.978 25.7363 282.792 22.9941 284.421 21.0254C286.05 19.0449 288.312 18.0547 291.206 18.0547C294.054 18.0547 296.298 19.0273 297.939 20.9727C299.579 22.9062 300.411 25.625 300.435 29.1289V33.5059ZM295.249 29.2168C295.249 26.9082 294.921 25.1914 294.265 24.0664C293.609 22.9414 292.589 22.3789 291.206 22.3789C289.835 22.3789 288.822 22.9238 288.165 24.0137C287.509 25.0918 287.169 26.7383 287.146 28.9531V33.5059C287.146 35.7441 287.48 37.3965 288.148 38.4629C288.816 39.5176 289.847 40.0449 291.242 40.0449C292.589 40.0449 293.591 39.5293 294.247 38.498C294.904 37.4551 295.238 35.8438 295.249 33.6641V29.2168ZM319.208 22.7129H312.88V44H307.695V22.7129H301.472V18.4062H319.208V22.7129Z" fill="white" fill-opacity="0.5"/>
<path d="M159.441 18.4062L164.275 36.916L169.091 18.4062H175.841V44H170.656V37.0742L171.13 26.4043L166.015 44H162.499L157.384 26.4043L157.859 37.0742V44H152.691V18.4062H159.441ZM187.232 29.9023L191.081 18.4062H196.706L189.851 34.7188V44H184.613V34.7188L177.74 18.4062H183.365L187.232 29.9023Z" fill="white"/>
</svg>
