<svg width="69" height="95" viewBox="0 0 69 95" fill="none" xmlns="http://www.w3.org/2000/svg">
<rect width="17.25" height="17.25" fill="#274C80"/>
<rect x="21.5625" width="47.4375" height="17.25" fill="#CF233D"/>
<rect y="25.875" width="69" height="17.25" fill="#CF233D"/>
<rect y="51.75" width="69" height="17.25" fill="#CF233D"/>
<path d="M7.817 91L11.846 78.862H9.092L6.355 87.396H6.321L3.618 78.862H0.881L4.808 91H7.817ZM13.8383 86.614C13.8383 86.2627 13.8723 85.917 13.9403 85.577C14.0083 85.237 14.1217 84.9367 14.2803 84.676C14.4503 84.4153 14.6713 84.2057 14.9433 84.047C15.2153 83.877 15.5553 83.792 15.9633 83.792C16.3713 83.792 16.7113 83.877 16.9833 84.047C17.2667 84.2057 17.4877 84.4153 17.6463 84.676C17.8163 84.9367 17.9353 85.237 18.0033 85.577C18.0713 85.917 18.1053 86.2627 18.1053 86.614C18.1053 86.9653 18.0713 87.311 18.0033 87.651C17.9353 87.9797 17.8163 88.28 17.6463 88.552C17.4877 88.8127 17.2667 89.0223 16.9833 89.181C16.7113 89.3397 16.3713 89.419 15.9633 89.419C15.5553 89.419 15.2153 89.3397 14.9433 89.181C14.6713 89.0223 14.4503 88.8127 14.2803 88.552C14.1217 88.28 14.0083 87.9797 13.9403 87.651C13.8723 87.311 13.8383 86.9653 13.8383 86.614ZM11.4243 86.614C11.4243 87.3167 11.532 87.9513 11.7473 88.518C11.9627 89.0847 12.2687 89.572 12.6653 89.98C13.062 90.3767 13.538 90.6827 14.0933 90.898C14.6487 91.1133 15.272 91.221 15.9633 91.221C16.6547 91.221 17.278 91.1133 17.8333 90.898C18.4 90.6827 18.8817 90.3767 19.2783 89.98C19.675 89.572 19.981 89.0847 20.1963 88.518C20.4117 87.9513 20.5193 87.3167 20.5193 86.614C20.5193 85.9113 20.4117 85.2767 20.1963 84.71C19.981 84.132 19.675 83.6447 19.2783 83.248C18.8817 82.84 18.4 82.5283 17.8333 82.313C17.278 82.0863 16.6547 81.973 15.9633 81.973C15.272 81.973 14.6487 82.0863 14.0933 82.313C13.538 82.5283 13.062 82.84 12.6653 83.248C12.2687 83.6447 11.9627 84.132 11.7473 84.71C11.532 85.2767 11.4243 85.9113 11.4243 86.614ZM25.1489 82.211V79.576H22.7349V82.211H21.2729V83.826H22.7349V89.011C22.7349 89.453 22.8086 89.81 22.9559 90.082C23.1032 90.354 23.3016 90.5637 23.5509 90.711C23.8116 90.8583 24.1062 90.9547 24.4349 91C24.7749 91.0567 25.1319 91.085 25.5059 91.085C25.7439 91.085 25.9876 91.0793 26.2369 91.068C26.4862 91.0567 26.7129 91.034 26.9169 91V89.13C26.8036 89.1527 26.6846 89.1697 26.5599 89.181C26.4352 89.1923 26.3049 89.198 26.1689 89.198C25.7609 89.198 25.4889 89.13 25.3529 88.994C25.2169 88.858 25.1489 88.586 25.1489 88.178V83.826H26.9169V82.211H25.1489ZM33.9815 85.662H30.0545C30.0658 85.492 30.0998 85.2993 30.1565 85.084C30.2245 84.8687 30.3321 84.6647 30.4795 84.472C30.6381 84.2793 30.8421 84.1207 31.0915 83.996C31.3521 83.86 31.6751 83.792 32.0605 83.792C32.6498 83.792 33.0861 83.9507 33.3695 84.268C33.6641 84.5853 33.8681 85.05 33.9815 85.662ZM30.0545 87.192H36.3955C36.4408 86.512 36.3841 85.8603 36.2255 85.237C36.0668 84.6137 35.8061 84.0583 35.4435 83.571C35.0921 83.0837 34.6388 82.6983 34.0835 82.415C33.5281 82.1203 32.8765 81.973 32.1285 81.973C31.4598 81.973 30.8478 82.092 30.2925 82.33C29.7485 82.568 29.2781 82.8967 28.8815 83.316C28.4848 83.724 28.1788 84.2113 27.9635 84.778C27.7481 85.3447 27.6405 85.9567 27.6405 86.614C27.6405 87.294 27.7425 87.9173 27.9465 88.484C28.1618 89.0507 28.4621 89.538 28.8475 89.946C29.2328 90.354 29.7031 90.6713 30.2585 90.898C30.8138 91.1133 31.4371 91.221 32.1285 91.221C33.1258 91.221 33.9758 90.9943 34.6785 90.541C35.3811 90.0877 35.9025 89.334 36.2425 88.28H34.1175C34.0381 88.552 33.8228 88.8127 33.4715 89.062C33.1201 89.3 32.7008 89.419 32.2135 89.419C31.5335 89.419 31.0121 89.2433 30.6495 88.892C30.2868 88.5407 30.0885 87.974 30.0545 87.192ZM37.9292 88.382V91H40.5982V88.382H37.9292ZM44.7006 86.614C44.7006 86.2627 44.7346 85.917 44.8026 85.577C44.8706 85.237 44.984 84.9367 45.1426 84.676C45.3126 84.4153 45.5336 84.2057 45.8056 84.047C46.0776 83.877 46.4176 83.792 46.8256 83.792C47.2336 83.792 47.5736 83.877 47.8456 84.047C48.129 84.2057 48.35 84.4153 48.5086 84.676C48.6786 84.9367 48.7976 85.237 48.8656 85.577C48.9336 85.917 48.9676 86.2627 48.9676 86.614C48.9676 86.9653 48.9336 87.311 48.8656 87.651C48.7976 87.9797 48.6786 88.28 48.5086 88.552C48.35 88.8127 48.129 89.0223 47.8456 89.181C47.5736 89.3397 47.2336 89.419 46.8256 89.419C46.4176 89.419 46.0776 89.3397 45.8056 89.181C45.5336 89.0223 45.3126 88.8127 45.1426 88.552C44.984 88.28 44.8706 87.9797 44.8026 87.651C44.7346 87.311 44.7006 86.9653 44.7006 86.614ZM42.2866 86.614C42.2866 87.3167 42.3943 87.9513 42.6096 88.518C42.825 89.0847 43.131 89.572 43.5276 89.98C43.9243 90.3767 44.4003 90.6827 44.9556 90.898C45.511 91.1133 46.1343 91.221 46.8256 91.221C47.517 91.221 48.1403 91.1133 48.6956 90.898C49.2623 90.6827 49.744 90.3767 50.1406 89.98C50.5373 89.572 50.8433 89.0847 51.0586 88.518C51.274 87.9513 51.3816 87.3167 51.3816 86.614C51.3816 85.9113 51.274 85.2767 51.0586 84.71C50.8433 84.132 50.5373 83.6447 50.1406 83.248C49.744 82.84 49.2623 82.5283 48.6956 82.313C48.1403 82.0863 47.517 81.973 46.8256 81.973C46.1343 81.973 45.511 82.0863 44.9556 82.313C44.4003 82.5283 43.9243 82.84 43.5276 83.248C43.131 83.6447 42.825 84.132 42.6096 84.71C42.3943 85.2767 42.2866 85.9113 42.2866 86.614ZM52.9512 82.211V91H55.3652V87.039C55.3652 86.6423 55.4049 86.274 55.4842 85.934C55.5635 85.594 55.6939 85.2993 55.8752 85.05C56.0679 84.7893 56.3172 84.5853 56.6232 84.438C56.9292 84.2907 57.3032 84.217 57.7452 84.217C57.8925 84.217 58.0455 84.2283 58.2042 84.251C58.3629 84.2623 58.4989 84.2793 58.6122 84.302V82.058C58.4195 82.0013 58.2439 81.973 58.0852 81.973C57.7792 81.973 57.4845 82.0183 57.2012 82.109C56.9179 82.1997 56.6515 82.33 56.4022 82.5C56.1529 82.6587 55.9319 82.857 55.7392 83.095C55.5465 83.3217 55.3935 83.571 55.2802 83.843H55.2462V82.211H52.9512ZM63.1742 88.926C62.8002 88.926 62.4885 88.8467 62.2392 88.688C61.9898 88.5293 61.7858 88.3253 61.6272 88.076C61.4798 87.8267 61.3722 87.549 61.3042 87.243C61.2475 86.9257 61.2192 86.6083 61.2192 86.291C61.2192 85.9623 61.2532 85.6507 61.3212 85.356C61.4005 85.05 61.5195 84.7837 61.6782 84.557C61.8482 84.319 62.0522 84.132 62.2902 83.996C62.5395 83.86 62.8342 83.792 63.1742 83.792C63.5708 83.792 63.8995 83.8657 64.1602 84.013C64.4208 84.1603 64.6305 84.3587 64.7892 84.608C64.9478 84.8573 65.0612 85.1463 65.1292 85.475C65.1972 85.7923 65.2312 86.1323 65.2312 86.495C65.2312 86.8123 65.1858 87.1183 65.0952 87.413C65.0158 87.6963 64.8912 87.9513 64.7212 88.178C64.5512 88.4047 64.3358 88.586 64.0752 88.722C63.8145 88.858 63.5142 88.926 63.1742 88.926ZM67.5262 90.439V82.211H65.2312V83.384H65.1972C64.9025 82.874 64.5342 82.5113 64.0922 82.296C63.6615 82.0807 63.1572 81.973 62.5792 81.973C61.9672 81.973 61.4232 82.092 60.9472 82.33C60.4825 82.568 60.0915 82.891 59.7742 83.299C59.4568 83.6957 59.2132 84.1603 59.0432 84.693C58.8845 85.2143 58.8052 85.7583 58.8052 86.325C58.8052 86.9257 58.8732 87.498 59.0092 88.042C59.1565 88.5747 59.3832 89.045 59.6892 89.453C59.9952 89.8497 60.3862 90.167 60.8622 90.405C61.3382 90.6317 61.9048 90.745 62.5622 90.745C63.0948 90.745 63.5992 90.6373 64.0752 90.422C64.5625 90.1953 64.9365 89.8497 65.1972 89.385H65.2312V90.541C65.2425 91.1643 65.0895 91.68 64.7722 92.088C64.4662 92.496 63.9732 92.7 63.2932 92.7C62.8625 92.7 62.4828 92.6093 62.1542 92.428C61.8255 92.258 61.6045 91.9463 61.4912 91.493H59.0942C59.1282 91.9917 59.2642 92.4167 59.5022 92.768C59.7515 93.1307 60.0575 93.4253 60.4202 93.652C60.7942 93.8787 61.2022 94.043 61.6442 94.145C62.0975 94.2583 62.5395 94.315 62.9702 94.315C63.9788 94.315 64.7835 94.179 65.3842 93.907C65.9848 93.635 66.4438 93.3007 66.7612 92.904C67.0785 92.5187 67.2825 92.0993 67.3732 91.646C67.4752 91.1927 67.5262 90.7903 67.5262 90.439Z" fill="#252525"/>
</svg>
